<svg version="1.1" xmlns="http://www.w3.org/2000/svg" xmlns:xlink="http://www.w3.org/1999/xlink" width="188.58799" height="173.18919" viewBox="0,0,188.58799,173.18919"><g transform="translate(-145.70603,-93.40542)"><g data-paper-data="{&quot;isPaintingLayer&quot;:true}" fill-rule="nonzero" stroke-linejoin="miter" stroke-miterlimit="10" stroke-dasharray="" stroke-dashoffset="0" style="mix-blend-mode: normal"><path d="M145.70603,266.59461v-173.18919h188.58799v173.18919z" fill="none" stroke="none" stroke-width="0" stroke-linecap="butt"></path><path d="M217.40645,180.00003c0,-23.32857 -0.73502,-22.59355 22.59355,-22.59355c23.32857,0 22.59355,-0.73502 22.59355,22.59355c0,23.32857 0.73502,22.59355 -22.59355,22.59355c-23.32857,0 -22.59355,0.73502 -22.59355,-22.59355z" fill="#523d66" stroke="none" stroke-width="0" stroke-linecap="butt"></path><g fill="none" stroke="#856e9b" stroke-width="1.5" stroke-linecap="round"><path d="M232.08333,181.71876c0,0 1.48355,-4.31501 3.83333,-5.83333c2.34978,-1.51832 7,-1.16667 7,-1.16667l4.16667,8.66667l-10.5,3.33333z"></path><path d="M236.25,186.55209c0,0 -1.01252,6.01151 -4,7.16667c-2.98748,1.15516 -8.5,-2.33333 -8.5,-2.33333l2.33333,-9.16667l6.16667,-0.5"></path><path d="M226.25001,181.88543c0,0 0.22813,-2.82033 0.02496,-4.35864c-0.18377,-1.39135 -1.19163,-4.47469 -1.19163,-4.47469l6.5,-4l4.33333,6.33333"></path><path d="M231.75,169.05209c0,0 3.26813,-3.98086 6.16667,-4.16667c2.89853,-0.1858 6.83333,3.33333 6.83333,3.33333l-1.83333,6.5"></path><path d="M244.91667,168.21876l5.66667,-0.66667l3.5,6.5c0,0 -2.01457,2.62946 -3.33108,3.56982c-1.40051,1.00037 -4.83559,2.26351 -4.83559,2.26351"></path><path d="M246.75,183.21876l7.66667,3.66667l-7.83333,7.5c0,0 -0.14664,-2.94136 -2,-4.83333c-1.85336,-1.89197 -5.16667,-3.16667 -5.16667,-3.16667"></path><path d="M246.75,194.38543l-5.33333,4.33333l-9.5,-4.5"></path><path d="M254.08333,174.05209l6.16667,3.83333c0,0 0.00019,3.55064 -1.16667,5.33333c-1.16685,1.78269 -4.83333,3.83333 -4.83333,3.83333"></path><path d="M228.58333,170.55209c0,0 -4.95145,-4.61876 -3.83333,-7.83333c1.11811,-3.21457 7.83333,-3.66667 7.83333,-3.66667l5.83333,6"></path><path d="M241.25,165.55209l5.33333,-5.5c0,0 5.20629,0.70452 6.16667,2.5c0.96038,1.79549 -2.33333,4.66667 -2.33333,4.66667"></path><path d="M243.75,157.38543l2.16667,2.5"></path><path d="M232.58333,159.05209l1.33333,-1.66667"></path><path d="M217.58333,171.0521l7.5,2.33333"></path><path d="M224.58333,162.71875l-4.5,-2.16667"></path><path d="M223.58333,191.38543l-6.16667,-3v-6.5l8.66667,-3.33333"></path><path d="M226.58333,192.88543c0,0 0.10489,3.42771 -1.16667,4.66667c-1.27156,1.23895 -5.33333,1.66667 -5.33333,1.66667"></path><path d="M225.75,197.21876l3.66667,5.33333"></path><path d="M238.25,197.55209l-2.5,5"></path><path d="M250.75,190.21876l4.33333,5.5c0,0 -1.20113,4.02025 -3.33333,4.5c-2.13221,0.47975 -10,-1.5 -10,-1.5"></path><path d="M259.08333,183.38542l3.33333,6l-2.9,4.86667l-4.1,0.96667"></path><path d="M252.58333,162.38543l8.5,-0.33333l0.66667,7.33333l-5.66667,5.33333"></path></g><path d="M217.40645,180.00003c0,-23.32857 -0.73502,-22.59355 22.59355,-22.59355c23.32857,0 22.59355,-0.73502 22.59355,22.59355c0,23.32857 0.73502,22.59355 -22.59355,22.59355c-23.32857,0 -22.59355,0.73502 -22.59355,-22.59355z" fill="none" stroke="#261933" stroke-width="2" stroke-linecap="butt"></path></g></g></svg>