<svg version="1.1" xmlns="http://www.w3.org/2000/svg" xmlns:xlink="http://www.w3.org/1999/xlink" width="48.19227" height="48.19227" viewBox="0,0,48.19227,48.19227"><g transform="translate(-215.99101,-155.93657)"><g data-paper-data="{&quot;isPaintingLayer&quot;:true}" fill-rule="nonzero" stroke-linecap="butt" stroke-linejoin="miter" stroke-miterlimit="10" stroke-dasharray="" stroke-dashoffset="0" style="mix-blend-mode: normal"><path d="M217.49359,180.0327c0,-23.32857 -0.73502,-22.59355 22.59355,-22.59355c23.32857,0 22.59355,-0.73502 22.59355,22.59355c0,23.32857 0.73502,22.59355 -22.59355,22.59355c-23.32857,0 -22.59355,0.73502 -22.59355,-22.59355z" fill="#e4c05b" stroke="none" stroke-width="0"></path><path d="M222.89297,180.0327c0,-17.75353 -0.55937,-17.19417 17.19417,-17.19417c17.75353,0 17.19417,-0.55937 17.19417,17.19417c0,17.75353 0.55937,17.19417 -17.19417,17.19417c-17.75353,0 -17.19417,0.55937 -17.19417,-17.19417z" fill="#ebc969" stroke="none" stroke-width="0"></path><path d="M228.09238,180.0327c0,-12.38498 -0.39022,-11.99476 11.99476,-11.99476c12.38498,0 11.99476,-0.39022 11.99476,11.99476c0,12.38498 0.39022,11.99476 -11.99476,11.99476c-12.38498,0 -11.99476,0.39022 -11.99476,-11.99476z" fill="#e4c05b" stroke="none" stroke-width="0"></path><path d="M217.49359,180.0327c0,-23.32857 -0.73502,-22.59355 22.59355,-22.59355c23.32857,0 22.59355,-0.73502 22.59355,22.59355c0,23.32857 0.73502,22.59355 -22.59355,22.59355c-23.32857,0 -22.59355,0.73502 -22.59355,-22.59355z" fill="none" stroke="#b38300" stroke-width="3"></path><g fill="#cba029" stroke="none" stroke-width="0"><path d="M228.77168,195.40845v-20.52897c0,0 7.56847,2.6147 11.3314,2.6147c3.73474,0 11.16227,-2.6147 11.16227,-2.6147v20.52897c0,0 -1.29013,0 -2.53689,0c-1.25364,0 0.29609,-13.73298 -8.91854,-13.73298c-9.21466,0 -8.50136,13.73298 -8.50136,13.73298h-2.53686z" data-paper-data="{&quot;index&quot;:null}"></path><path d="M224.48651,193.89998v-9.01654l2.94948,-0.65957v10.29623z" data-paper-data="{&quot;index&quot;:null}"></path><path d="M252.56402,194.59487v-10.29625l2.94948,0.65957v9.01657z" data-paper-data="{&quot;index&quot;:null}"></path><path d="M232.82875,195.57863c0,0 0.39162,-12.21086 7.01305,-12.21086c6.62142,0 6.85522,12.21086 6.85522,12.21086z" data-paper-data="{&quot;index&quot;:null}"></path><path d="M228.77169,171.0995l1.33979,-0.74416h19.72l1.43385,0.74416v2.29167c0,0 -7.42753,2.6147 -11.16227,2.6147c-3.76294,0 -11.3314,-2.6147 -11.3314,-2.6147z" data-paper-data="{&quot;index&quot;:null}"></path><g data-paper-data="{&quot;index&quot;:null}"><path d="M230.48354,169.25835l-1.98441,-4.71295h2.35647l1.98441,4.71295z"></path><path d="M225.52253,183.39723l0.07771,-14.46322l2.89892,-4.38862h2.23246l-2.94133,4.56793l-0.03527,13.91183z"></path></g><g data-paper-data="{&quot;index&quot;:null}"><path d="M247.22694,169.13432l1.98441,-4.71295h2.35647l-1.98441,4.71295z" data-paper-data="{&quot;index&quot;:null}"></path><path d="M252.31197,182.90113l-0.03527,-13.91183l-2.94133,-4.56793h2.23246l2.89892,4.38862l0.07771,14.46322z" data-paper-data="{&quot;index&quot;:null}"></path></g></g></g></g></svg>