<svg version="1.1" xmlns="http://www.w3.org/2000/svg" xmlns:xlink="http://www.w3.org/1999/xlink" width="118.75981" height="80.89736" viewBox="0,0,118.75981,80.89736"><g transform="translate(-180.6201,-139.55132)"><g data-paper-data="{&quot;isPaintingLayer&quot;:true}" fill-rule="nonzero" stroke-linecap="butt" stroke-miterlimit="10" stroke-dasharray="" stroke-dashoffset="0" style="mix-blend-mode: normal"><path d="M296.87991,142.05132v75.89736h-113.75981v-75.89736z" data-paper-data="{&quot;index&quot;:null}" fill="#ffba5a" stroke="#cc7700" stroke-width="5" stroke-linejoin="miter"></path><path d="M254.64572,200.05131v17.89737h-71.52563v-17.89737z" data-paper-data="{&quot;index&quot;:null}" fill="#ffca80" stroke="none" stroke-width="0" stroke-linejoin="miter"></path><text transform="translate(188.46102,210.58994) scale(0.32577,0.28768)" font-size="40" xml:space="preserve" data-paper-data="{&quot;index&quot;:null}" fill="#ff4c4c" fill-rule="nonzero" stroke="#ff4c4c" stroke-width="1" stroke-linecap="butt" stroke-linejoin="miter" stroke-miterlimit="10" stroke-dasharray="" stroke-dashoffset="0" font-family="Sans Serif" font-weight="normal" text-anchor="start" style="mix-blend-mode: normal"><tspan x="0" dy="0">upgrade</tspan></text><g data-paper-data="{&quot;index&quot;:null}" fill="#cc7700" stroke="none" stroke-width="0" stroke-linejoin="miter"><path d="M254.13051,217.83333v-18.66667h42.21687v18.66667z"></path><path d="M244.90963,208.5c0,-5.09255 4.12833,-9.22088 9.22088,-9.22088c5.09255,0 9.22088,4.12833 9.22088,9.22088c0,5.09255 -4.12833,9.22088 -9.22088,9.22088c-5.09255,0 -9.22088,-4.12833 -9.22088,-9.22088z"></path></g><path d="M183.1201,217.94868v-75.89736h113.75981v75.89736z" data-paper-data="{&quot;index&quot;:null}" fill="none" stroke="#cc7700" stroke-width="5" stroke-linejoin="miter"></path><text transform="translate(249.86555,194.55958) scale(0.25999,0.22959)" font-size="40" xml:space="preserve" data-paper-data="{&quot;index&quot;:null}" fill="#95ff32" fill-rule="nonzero" stroke="#95ff32" stroke-width="1" stroke-linecap="butt" stroke-linejoin="miter" stroke-miterlimit="10" stroke-dasharray="" stroke-dashoffset="0" font-family="Sans Serif" font-weight="normal" text-anchor="start" style="mix-blend-mode: normal"><tspan x="0" dy="0">def: 5</tspan></text><g data-paper-data="{&quot;index&quot;:null}" fill="#ff4c4c" stroke="none" stroke-linejoin="miter"><path d="M226.99406,173.48753l2.40983,-4.67842l-2.40983,-4.96329l16.49803,2.10365v5.43442z" data-paper-data="{&quot;index&quot;:null}" stroke-width="NaN"></path><path d="M238.95399,159.40321l14.05195,9.26346l-14.05195,9.26346l3.12617,-9.26346z" stroke-width="0"></path></g><text transform="translate(225.73163,154.88289) scale(0.25999,0.22959)" font-size="40" xml:space="preserve" data-paper-data="{&quot;index&quot;:null}" fill="#ff4c4c" fill-rule="nonzero" stroke="#ff4c4c" stroke-width="1" stroke-linecap="butt" stroke-linejoin="miter" stroke-miterlimit="10" stroke-dasharray="" stroke-dashoffset="0" font-family="Sans Serif" font-weight="normal" text-anchor="start" style="mix-blend-mode: normal"><tspan x="0" dy="0">armor</tspan></text><text transform="translate(192.12769,194.55958) scale(0.25999,0.22959)" font-size="40" xml:space="preserve" data-paper-data="{&quot;index&quot;:null}" fill="#ff4c4c" fill-rule="nonzero" stroke="#ff4c4c" stroke-width="1" stroke-linecap="butt" stroke-linejoin="miter" stroke-miterlimit="10" stroke-dasharray="" stroke-dashoffset="0" font-family="Sans Serif" font-weight="normal" text-anchor="start" style="mix-blend-mode: normal"><tspan x="0" dy="0">def: 3</tspan></text><path d="M254.6514,203.6514c2.47448,-2.47448 9.09216,-0.89494 9.09216,-0.89494c0,0 1.57953,6.61769 -0.89494,9.09216c-2.47448,2.47448 -9.09216,0.89494 -9.09216,0.89494c0,0 -1.57953,-6.61769 0.89494,-9.09216z" fill="#598cff" stroke="#1951e3" stroke-width="1.5" stroke-linejoin="round"></path><text transform="translate(272.82518,212.93308) scale(0.43536,0.3552)" font-size="40" xml:space="preserve" fill="#7fa6ff" fill-rule="nonzero" stroke="#7fa6ff" stroke-width="2" stroke-linecap="butt" stroke-linejoin="miter" stroke-miterlimit="10" stroke-dasharray="" stroke-dashoffset="0" font-family="&quot;Microsoft YaHei&quot;, &quot;微软雅黑&quot;, STXihei, &quot;华文细黑&quot;" font-weight="normal" text-anchor="start" style="mix-blend-mode: normal"><tspan x="0" dy="0">8</tspan></text><g data-paper-data="{&quot;index&quot;:null}" fill="#00cc92" stroke-linejoin="miter"><g><path d="M212.34427,163.37405c-1.14814,-0.72978 1.30519,-7.81625 1.38992,-8.48865c0.0555,-0.44042 4.79632,-0.69588 5.21,-0.16264c0.51433,0.66296 1.27507,7.34776 1.02665,8.20165c-0.60038,2.06366 -6.22108,1.34299 -7.62657,0.44964z" stroke="#11a57b" stroke-width="3"></path><path d="M219.97084,162.92441c-0.8085,2.05429 -6.22109,1.34299 -7.62657,0.44964c-1.14814,-0.72978 1.30519,-7.81625 1.38992,-8.48865c0.0555,-0.44042 4.79632,-0.69588 5.21,-0.16264c0.51433,0.66296 1.35233,7.37414 1.02665,8.20165z" stroke="none" stroke-width="0"></path></g><g><path d="M199.80062,154.88376c0.13358,-1.06014 11.54518,-1.67504 12.54094,-0.39149c1.23803,1.59581 3.06921,17.68673 2.47124,19.74211c-1.44517,4.96742 -14.97472,3.23271 -18.35784,1.08233c-3.38312,-2.15038 3.14173,-18.81442 3.34566,-20.43295z" stroke="#11a57b" stroke-width="3"></path><path d="M214.81283,174.23438c-1.94613,4.94486 -14.97473,3.23271 -18.35785,1.08233c-2.76368,-1.75666 3.14172,-18.81442 3.34565,-20.43295c0.13358,-1.06014 11.54518,-1.67504 12.54094,-0.39149c1.23803,1.59581 3.25518,17.75023 2.47124,19.74211z" stroke="none" stroke-width="0"></path></g><g><path d="M191.962,163.97405c-1.14814,-0.72978 1.30519,-7.81625 1.38992,-8.48865c0.0555,-0.44042 4.79632,-0.69588 5.21,-0.16264c0.51433,0.66296 1.27507,7.34776 1.02665,8.20165c-0.60038,2.06366 -6.22108,1.34299 -7.62657,0.44964z" stroke="#11a57b" stroke-width="3"></path><path d="M199.58858,163.52441c-0.8085,2.05429 -6.22109,1.34299 -7.62657,0.44964c-1.14814,-0.72978 1.30519,-7.81625 1.38992,-8.48865c0.0555,-0.44042 4.79632,-0.69588 5.21,-0.16264c0.51433,0.66296 1.35233,7.37414 1.02665,8.20165z" stroke="none" stroke-width="0"></path></g></g><g data-paper-data="{&quot;index&quot;:null}" stroke-linejoin="miter"><g data-paper-data="{&quot;index&quot;:null}" fill="#f27979"><g><path d="M280.64369,163.37405c-1.14814,-0.72978 1.30519,-7.81625 1.38992,-8.48865c0.0555,-0.44042 4.79632,-0.69588 5.21,-0.16264c0.51433,0.66296 1.27507,7.34776 1.02665,8.20165c-0.60038,2.06366 -6.22108,1.34299 -7.62657,0.44964z" stroke="#da5858" stroke-width="3"></path><path d="M288.27026,162.92441c-0.8085,2.05429 -6.22109,1.34299 -7.62657,0.44964c-1.14814,-0.72978 1.30519,-7.81625 1.38992,-8.48865c0.0555,-0.44042 4.79632,-0.69588 5.21,-0.16264c0.51433,0.66296 1.35233,7.37414 1.02665,8.20165z" stroke="none" stroke-width="0"></path></g><g><path d="M268.10004,154.88376c0.13358,-1.06014 11.54518,-1.67504 12.54094,-0.39149c1.23803,1.59581 3.06921,17.68673 2.47124,19.74211c-1.44517,4.96742 -14.97472,3.23271 -18.35784,1.08233c-3.38312,-2.15038 3.14173,-18.81442 3.34566,-20.43295z" stroke="#da5858" stroke-width="3"></path><path d="M283.11225,174.23438c-1.94613,4.94486 -14.97473,3.23271 -18.35785,1.08233c-2.76368,-1.75666 3.14172,-18.81442 3.34565,-20.43295c0.13358,-1.06014 11.54518,-1.67504 12.54094,-0.39149c1.23803,1.59581 3.25518,17.75023 2.47124,19.74211z" stroke="none" stroke-width="0"></path></g><g><path d="M260.26142,163.97405c-1.14814,-0.72978 1.30519,-7.81625 1.38992,-8.48865c0.0555,-0.44042 4.79632,-0.69588 5.21,-0.16264c0.51433,0.66296 1.27507,7.34776 1.02665,8.20165c-0.60038,2.06366 -6.22108,1.34299 -7.62657,0.44964z" stroke="#da5858" stroke-width="3"></path><path d="M267.888,163.52441c-0.8085,2.05429 -6.22109,1.34299 -7.62657,0.44964c-1.14814,-0.72978 1.30519,-7.81625 1.38992,-8.48865c0.0555,-0.44042 4.79632,-0.69588 5.21,-0.16264c0.51433,0.66296 1.35233,7.37414 1.02665,8.20165z" stroke="none" stroke-width="0"></path></g></g><path d="M279.4034,165.30082c0,1.32282 -2.45233,5.09388 -3.46667,5.09388c-1.0704,0 -3.46667,-3.85345 -3.46667,-5.09388c0,-1.28068 2.42365,-5.09388 3.46667,-5.09388c1.11097,0 3.46667,3.91306 3.46667,5.09388z" fill="#f2c249" stroke="none" stroke-width="0"></path></g><path d="M210.9,163.46c0,2.65097 -1.43269,4.8 -3.2,4.8c-1.76731,0 -3.2,-2.14903 -3.2,-4.8c0,-2.65097 1.43269,-4.8 3.2,-4.8c1.76731,0 3.2,2.14903 3.2,4.8z" fill="#17e667" stroke="none" stroke-width="0" stroke-linejoin="miter"></path></g></g></svg>