<svg version="1.1" xmlns="http://www.w3.org/2000/svg" xmlns:xlink="http://www.w3.org/1999/xlink" width="44.34375" height="66" viewBox="0,0,44.34375,66"><g transform="translate(-217.82813,-147)"><g data-paper-data="{&quot;isPaintingLayer&quot;:true}" fill-rule="nonzero" stroke="none" stroke-width="0" stroke-linecap="butt" stroke-linejoin="miter" stroke-miterlimit="10" stroke-dasharray="" stroke-dashoffset="0" style="mix-blend-mode: normal"><path d="M217.82813,213v-66h44.34375v66z" data-paper-data="{&quot;index&quot;:null}" fill="none"></path><path d="M243.45673,163.07502c0,0 1.57198,-0.13655 2.47479,0.78756c0.90281,0.92411 0.77824,2.54223 0.77824,2.54223v27.18962c0,0 0.13363,1.62205 -0.77824,2.54223c-0.91187,0.92019 -2.52148,0.78756 -2.52148,0.78756h-6.8674c0,0 -1.57198,0.13655 -2.47479,-0.78756c-0.90281,-0.92411 -0.77824,-2.54223 -0.77824,-2.54223v-27.18962c0,0 -0.11431,-1.62861 0.77824,-2.54223c0.89256,-0.91362 2.47479,-0.78756 2.47479,-0.78756z" data-paper-data="{&quot;index&quot;:null}" fill="#f16262"></path><path d="M226.03599,196.88673v-33.77346h13.63928v33.77346z" data-paper-data="{&quot;index&quot;:null}" fill="#f16262"></path></g></g></svg>